<svg xmlns="http://www.w3.org/2000/svg" width="430" height="430" style="width:100%;height:100%;transform:translate3d(0,0,0);content-visibility:visible" viewBox="0 0 430 430"><defs><clipPath id="g"><path d="M0 0h430v430H0z"/></clipPath><clipPath id="p"><path d="M0 0h430v430H0z"/></clipPath><clipPath id="o"><path d="M0 0h430v430H0z"/></clipPath><clipPath id="n"><path d="M0 0h430v430H0z"/></clipPath><clipPath id="h"><path d="M0 0h430v430H0z"/></clipPath><clipPath id="i"><path d="M0 0h430v430H0z"/></clipPath><filter id="a" width="100%" height="100%" x="0%" y="0%" filterUnits="objectBoundingBox"><feComponentTransfer in="SourceGraphic"><feFuncA tableValues="1.0 0.0" type="table"/></feComponentTransfer></filter><filter id="c" width="100%" height="100%" x="0%" y="0%" filterUnits="objectBoundingBox"><feComponentTransfer in="SourceGraphic"><feFuncA tableValues="1.0 0.0" type="table"/></feComponentTransfer></filter><filter id="e" width="100%" height="100%" x="0%" y="0%" filterUnits="objectBoundingBox"><feComponentTransfer in="SourceGraphic"><feFuncA tableValues="1.0 0.0" type="table"/></feComponentTransfer></filter><path id="b" style="display:none"/><path id="d" style="display:none"/><path id="f" fill="red" d="M399.9 167.03v17.2c0 7.12-5.78 12.9-12.9 12.9H43c-7.12 0-12.9-5.78-12.9-12.9v-17.2c0-7.12 5.78-12.9 12.9-12.9h344c7.12 0 12.9 5.78 12.9 12.9M45.15 198.2l46.32 154.96c3.39 11.37 15.79 20.6 27.65 20.6h193.34c11.86 0 24.16-9.25 27.45-20.66l44.94-155.97" style="display:block"/><mask id="m" mask-type="alpha" maskUnits="userSpaceOnUse"><g filter="url(#a)"><path fill="#fff" d="M0 0h430v430H0z" opacity="0"/><use xmlns:ns1="http://www.w3.org/1999/xlink" ns1:href="#b"/></g></mask><mask id="l" mask-type="alpha" maskUnits="userSpaceOnUse"><g filter="url(#c)"><path fill="#fff" d="M0 0h430v430H0z" opacity="0"/><use xmlns:ns2="http://www.w3.org/1999/xlink" ns2:href="#d"/></g></mask><mask id="k" mask-type="alpha" maskUnits="userSpaceOnUse"><g filter="url(#e)"><path fill="#fff" d="M0 0h430v430H0z" opacity="0"/><use xmlns:ns3="http://www.w3.org/1999/xlink" ns3:href="#f"/></g></mask></defs><g clip-path="url(#g)"><g clip-path="url(#h)" style="display:block"><path fill="none" stroke="#2F80E8" stroke-linecap="round" stroke-linejoin="round" stroke-width="12.642" d="M-130.435-67.51-146.2-94.183l100.513-64.581 58.746 97.115m-31.036-54.065 46.963-28.504 49.072 82.603M61.717-92.75l46.376-29.98 34.344 59.877" class="secondary" style="display:block" transform="rotate(-2.592 4860.589 -4682.61)"/><g clip-path="url(#i)" mask="url(#k)" style="display:none"><g mask="url(#l)" style="display:none"><path fill="none" class="secondary"/></g><g mask="url(#m)" style="display:none"><path fill="none" class="secondary"/></g><path fill="none" class="secondary" style="display:none"/></g><g fill="none" stroke-linecap="round" stroke-linejoin="round" stroke-width="12.642" style="display:block"><path stroke="#2F80E8" d="M327.083 226.089 301.21 335.636m-30.027-90.902-10.922 90.941m-42.828-78.811-.399 78.811M107.083 226.201l26.126 109.59m29.976-89.298 11.076 88.438" class="secondary"/><path stroke="#121330" d="M399.9 167.029v17.2c0 7.12-5.78 12.9-12.9 12.9H43c-7.12 0-12.9-5.78-12.9-12.9v-17.2c0-7.12 5.78-12.9 12.9-12.9h344c7.12 0 12.9 5.78 12.9 12.9M45.15 198.204l46.316 154.961c3.398 11.369 15.791 20.6 27.657 20.6h193.332c11.866 0 24.168-9.258 27.453-20.66l44.942-155.976" class="primary"/></g><g style="display:block"><path fill="none" stroke="#121330" stroke-linecap="round" stroke-linejoin="round" stroke-width="12.642" d="m216.982 201.881.327-143.968m-4.87 139.766h-.01m6.67-.02h.02" class="primary"/><path fill="#121330" d="M233.477 208.653c0 9.083-7.912 16.446-17.673 16.446s-17.673-7.363-17.673-16.446 7.912-16.446 17.673-16.446 17.673 7.363 17.673 16.446" class="primary"/><path fill="none" stroke="#121330" stroke-miterlimit="10" stroke-width="2" d="M233.477 208.653c0 9.083-7.912 16.446-17.673 16.446s-17.673-7.363-17.673-16.446 7.912-16.446 17.673-16.446 17.673 7.363 17.673 16.446z" class="primary"/></g></g><g clip-path="url(#n)" style="display:none"><g fill="none" style="display:none"><path class="secondary"/><path class="primary"/><path class="primary"/></g><g style="display:none"><path fill="none" class="primary"/><path class="primary"/><path fill="none" class="primary"/></g></g><g clip-path="url(#o)" style="display:none"><g fill="none" style="display:none"><path class="secondary"/><path class="primary"/><path class="primary"/></g><g style="display:none"><path fill="none" class="primary"/><path class="primary"/><path fill="none" class="primary"/></g></g><g clip-path="url(#p)" style="display:none"><g fill="none" style="display:none"><path class="secondary"/><path class="primary"/><path class="primary"/></g><g style="display:none"><path fill="none" class="primary"/><path class="primary"/><path fill="none" class="primary"/></g></g></g></svg>