<svg version="1.1" id="Layer_1" xmlns="http://www.w3.org/2000/svg" xmlns:xlink="http://www.w3.org/1999/xlink" x="0px" y="0px"
	 width="100%" viewBox="0 0 848 272" enable-background="new 0 0 848 272" xml:space="preserve">
<path fill="#2563eb" opacity="1.000000" stroke="none" 
	d="
M677.182617,151.852402 
	C685.975037,167.231140 695.346375,181.772293 706.709473,194.948807 
	C713.502319,202.825745 720.960449,209.921463 730.388000,214.577789 
	C734.520813,216.619003 734.891663,219.210556 732.769470,223.039948 
	C727.785217,232.033417 712.777832,238.156235 700.817566,235.725937 
	C689.830444,233.493378 681.005371,227.407242 673.025757,219.850082 
	C658.782410,206.360809 646.895264,190.970200 636.309143,174.521454 
	C635.591187,173.405960 634.838562,172.310745 634.051331,171.243469 
	C633.876831,171.006821 633.487305,170.928772 633.179688,170.768860 
	C631.774841,170.661499 631.167175,171.786270 630.448425,172.650116 
	C610.129944,197.068680 592.784119,223.456161 578.197754,251.665039 
	C577.130432,253.729233 576.189758,255.808868 576.033813,258.244202 
	C575.580444,265.325195 570.540894,268.128418 563.901184,265.125793 
	C552.867126,260.135956 547.447266,245.508041 552.701050,234.037933 
	C560.827820,216.295486 570.793152,199.551575 580.907043,182.888138 
	C589.826477,168.192703 600.115845,154.459244 610.249329,140.621338 
	C613.086304,136.747223 613.880005,133.507736 611.737366,128.869232 
	C602.017761,107.827774 594.705017,85.885101 588.448303,63.594166 
	C587.468750,60.104290 587.191833,56.403553 586.744507,52.781239 
	C586.122681,47.746624 588.291260,43.996609 593.182495,42.996403 
	C599.699158,41.663803 606.311035,39.157909 613.073425,41.856190 
	C619.403137,44.381851 624.009094,48.278767 625.570435,55.524460 
	C628.513611,69.182816 632.588501,82.548058 637.607666,95.601654 
	C638.293640,97.385658 638.643494,99.537842 640.856628,100.410194 
	C642.893005,100.064987 643.742188,98.304794 644.919006,96.966301 
	C666.753296,72.131592 690.466064,49.265503 716.676819,29.077084 
	C721.380127,25.454453 726.221191,21.826227 732.028076,19.849655 
	C735.264099,18.748161 738.331482,18.615505 741.054810,20.704674 
	C745.009094,23.738033 749.024780,26.769482 752.536560,30.279579 
	C756.031860,33.773235 755.480957,38.024250 751.530334,41.113037 
	C720.065918,65.713387 694.754456,96.236794 669.135742,126.476212 
	C666.681091,129.373505 666.766663,132.120956 668.398315,135.193436 
	C671.285400,140.630005 674.154785,146.075928 677.182617,151.852402 
M659.822144,140.989929 
	C659.086487,139.908249 658.200378,139.171371 656.975342,140.256897 
	C655.782288,141.314072 655.082947,142.645004 655.815796,144.258743 
	C656.848389,146.532623 657.934448,148.784027 659.060669,151.013229 
	C663.951477,160.693527 669.306824,170.085709 676.558777,178.349808 
	C671.107971,166.086121 665.657227,153.822433 659.822144,140.989929 
M655.153748,105.710068 
	C656.509644,103.990433 657.865540,102.270798 659.221436,100.551163 
	C653.979309,104.303642 650.618164,109.531540 646.540466,114.179573 
	C646.863037,114.445053 647.185608,114.710533 647.508179,114.976013 
	C649.916626,112.072906 652.325012,109.169800 655.153748,105.710068 
z"/>
<path fill="#2563eb" opacity="1.000000" stroke="none" 
	d="
M98.293404,180.499023 
	C97.628036,178.552826 97.081253,176.978256 96.583298,175.388367 
	C94.554413,168.910416 95.759544,167.282272 102.362152,166.736694 
	C105.306145,166.493408 106.654915,167.531021 107.249588,170.313034 
	C110.414566,185.119537 119.148430,195.373459 133.672363,199.437637 
	C149.936371,203.988724 166.308990,204.283188 181.432709,195.083572 
	C193.935654,187.478149 198.435333,171.562210 191.963425,158.850128 
	C188.686142,152.412918 183.057205,148.721649 176.483963,146.208496 
	C165.088120,141.851517 153.034409,140.130188 141.250870,137.331360 
	C132.500351,135.252914 123.873123,133.008667 116.046745,128.246994 
	C95.295982,115.621933 97.273460,87.967804 111.271500,74.683342 
	C118.625969,67.703789 127.326363,63.432785 137.238724,61.680958 
	C155.245255,58.498638 172.373657,60.207127 187.695328,71.265800 
	C196.073410,77.312820 200.848343,85.665260 203.045807,95.595818 
	C203.543228,97.843765 204.208252,100.758911 200.739609,101.038246 
	C197.584030,101.292389 193.216766,103.200531 192.087189,97.985199 
	C189.077164,84.087685 180.106689,75.827339 166.924942,72.391876 
	C151.587357,68.394569 136.466904,69.137375 122.894058,78.496925 
	C113.698067,84.838303 110.782913,94.161232 112.361198,104.828949 
	C113.763481,114.307137 120.609596,119.286133 128.820618,122.650116 
	C140.298767,127.352600 152.571884,128.989792 164.572205,131.683609 
	C176.317520,134.320145 188.118423,137.227417 196.842300,146.242157 
	C212.055420,161.962494 208.428360,189.743591 189.882278,202.232224 
	C180.087250,208.828033 169.314316,211.981766 157.524902,212.377136 
	C143.648453,212.842468 130.289856,211.419556 118.117683,204.015549 
	C108.986366,198.461258 102.260864,190.905991 98.293404,180.499023 
z"/>
<path fill="#2563eb" opacity="1.000000" stroke="none" 
	d="
M522.648132,101.770889 
	C546.617737,106.023399 560.622314,120.366875 564.189026,143.864182 
	C566.469421,158.887405 566.468933,158.976120 551.487549,158.881592 
	C528.338013,158.735535 505.184967,159.394730 482.037903,158.541382 
	C476.920135,158.352692 475.654694,159.689072 476.293945,164.706787 
	C479.375488,188.895340 496.855133,204.654846 522.111816,202.153229 
	C536.610779,200.717133 546.667175,193.924271 552.495850,180.637405 
	C553.889954,177.459351 558.362488,176.361465 561.848755,178.212631 
	C565.101013,179.939529 563.015686,182.278839 562.266235,184.239517 
	C556.252808,199.970993 538.864380,211.620132 521.918091,212.346313 
	C504.630951,213.087128 489.579895,208.652267 477.990753,195.349442 
	C457.691956,172.049042 460.968628,131.220169 484.609192,111.983040 
	C495.573181,103.061249 508.480011,100.823509 522.648132,101.770889 
M489.142059,121.636833 
	C481.435913,129.122101 477.532501,138.290405 476.537384,149.039902 
	C480.915436,150.208389 484.907684,149.660843 488.842346,149.674759 
	C508.797913,149.745377 528.754517,149.629684 548.709045,149.789032 
	C553.066650,149.823822 554.481812,148.276367 553.426941,144.149155 
	C552.399109,140.127914 551.504150,136.079422 549.857910,132.235611 
	C539.055115,107.012886 504.782593,105.511131 489.142059,121.636833 
z"/>
<path fill="#2563eb" opacity="1.000000" stroke="none" 
	d="
M385.804077,175.620148 
	C379.160889,197.519623 360.049957,211.431931 337.820282,212.420273 
	C299.286682,214.133484 277.291229,178.794769 283.088715,147.055466 
	C286.453033,128.636795 295.102600,114.254303 312.496643,106.408150 
	C340.420776,93.812042 374.876709,105.464088 385.459442,137.008057 
	C389.727234,149.729111 389.668488,162.453430 385.804077,175.620148 
M360.888306,119.598587 
	C341.896698,105.771141 317.496338,108.820282 302.898041,126.831215 
	C294.613129,137.052917 292.693695,149.177368 293.590118,161.648560 
	C294.836121,178.982895 302.645081,192.832794 319.336639,199.441727 
	C334.952179,205.624634 350.415741,203.964127 363.224365,192.451508 
	C383.559814,174.173615 382.638214,137.087067 360.888306,119.598587 
z"/>
<path fill="#2563eb" opacity="1.000000" stroke="none" 
	d="
M224.050537,103.973816 
	C225.521240,103.959106 226.532654,103.854156 227.518921,103.967720 
	C232.303558,104.518669 234.059204,102.478813 233.783035,97.672546 
	C233.439438,91.692688 233.873611,85.670593 233.606628,79.683029 
	C233.422607,75.556137 235.059723,73.968170 239.080322,73.949379 
	C242.997940,73.931061 244.353531,75.662582 244.255783,79.448997 
	C244.083817,86.109901 244.324844,92.780884 244.190918,99.443596 
	C244.126495,102.648911 245.330185,103.952232 248.568405,103.892914 
	C255.064682,103.773895 261.565796,103.945396 268.063660,103.876526 
	C271.649750,103.838516 273.797791,105.086975 273.840729,109.012085 
	C273.885712,113.123260 271.271637,113.384689 268.146637,113.343498 
	C261.648834,113.257835 255.147842,113.390968 248.650818,113.279846 
	C245.453812,113.225166 244.175415,114.554108 244.185928,117.739456 
	C244.262939,141.068726 244.105530,164.399933 244.359329,187.726883 
	C244.454269,196.454956 250.414291,201.775696 259.193634,201.875793 
	C262.504395,201.913528 265.804260,202.021622 269.097046,201.011520 
	C270.994568,200.429428 273.942078,198.292725 274.913757,201.949249 
	C275.752960,205.107117 276.223267,208.739822 271.837219,210.250732 
	C264.356537,212.827698 256.779816,213.243759 249.324249,210.482712 
	C239.169312,206.722000 233.824097,198.894379 233.774963,187.823807 
	C233.674377,165.161118 233.591782,142.496460 233.815247,119.835701 
	C233.864410,114.849396 232.482834,112.650696 227.347885,113.307762 
	C225.380478,113.559509 223.353638,113.333344 221.354111,113.350883 
	C218.424103,113.376587 215.662354,113.590919 215.629166,109.191322 
	C215.598755,105.159241 217.401245,103.790154 221.081009,104.001801 
	C221.910828,104.049522 222.746628,103.992897 224.050537,103.973816 
z"/>
<path fill="#2563eb" opacity="1.000000" stroke="none" 
	d="
M409.128174,171.104584 
	C410.339020,150.501923 408.664246,130.368301 409.040527,110.229530 
	C409.120117,105.970551 410.176971,103.551781 415.003357,103.950630 
	C418.298370,104.222923 419.868347,105.688637 419.856995,108.949677 
	C419.845001,112.389374 419.854309,115.829147 419.854309,119.581558 
	C422.514740,118.767685 423.173950,116.898941 424.294250,115.583229 
	C432.556396,105.879890 443.306793,102.002090 455.727295,101.938980 
	C459.685242,101.918869 460.888214,104.305351 460.769318,107.809242 
	C460.658478,111.075905 459.532135,113.500366 455.712158,112.937355 
	C435.535767,109.963615 420.256958,128.021881 420.131348,149.509552 
	C420.024261,167.828247 420.161438,186.148285 420.130707,204.467621 
	C420.121490,209.967606 418.964264,210.824844 413.577362,210.371735 
	C410.728149,210.132080 409.498779,209.061981 409.497772,206.025635 
	C409.493866,194.540634 409.267578,183.055695 409.128174,171.104584 
z"/>
</svg>