<svg version="1.1" id="Layer_1" xmlns="http://www.w3.org/2000/svg" xmlns:xlink="http://www.w3.org/1999/xlink" x="0px" y="0px"
	 width="100%" viewBox="0 0 304 288" enable-background="new 0 0 304 288" xml:space="preserve">
<rect width="304" height="288" fill="#ffffff" rx="64" ry="64" />
<path fill="#2563eb" opacity="1.000000" stroke="none" 
	d="
M64.267029,230.309082 
	C77.932533,204.282318 93.010735,179.547958 110.779411,156.593231 
	C116.212196,149.574814 117.746017,143.978806 113.492615,135.372818 
	C103.358871,114.868996 97.594032,92.718994 92.283348,70.520897 
	C90.854874,64.550003 93.026344,60.414188 98.883186,58.434772 
	C107.312317,55.586010 115.464165,54.291527 123.259003,60.848965 
	C126.985817,63.984158 128.086197,67.933998 129.158371,72.027725 
	C132.446182,84.581139 135.989761,97.036896 141.000656,109.034653 
	C141.572906,110.404793 141.761658,111.981873 143.993713,112.662682 
	C148.365967,109.474007 151.448090,104.640991 155.289246,100.595375 
	C174.912430,79.927795 194.889374,59.670216 218.319244,43.190536 
	C219.272720,42.519905 220.208237,41.822937 221.174561,41.171516 
	C233.024307,33.183235 240.516541,34.391579 249.497208,45.731228 
	C252.995483,50.148426 252.983109,54.129471 248.656036,56.930416 
	C237.613708,64.078209 228.920334,73.754318 219.910675,83.059280 
	C202.771591,100.760147 186.090057,118.886803 170.533432,138.021347 
	C168.664337,140.320312 167.832382,142.277740 169.319626,145.186096 
	C180.030151,166.130615 191.780594,186.396255 207.441498,204.122437 
	C213.870346,211.399109 221.043732,217.854492 229.752548,222.338547 
	C233.527939,224.282425 233.583298,226.546799 231.601349,229.994873 
	C226.068375,239.620804 213.951431,243.002457 202.271606,241.891312 
	C189.801025,240.704926 181.002670,232.774902 172.454849,224.902130 
	C159.776932,213.225418 149.776840,199.232758 139.968826,185.143036 
	C138.839981,183.521408 137.905441,181.726151 135.717056,180.761185 
	C131.953918,183.536118 129.721619,187.715958 126.800659,191.243637 
	C110.813080,210.552063 97.499763,231.648926 85.640312,253.686523 
	C83.678993,257.331116 81.899475,260.982880 81.961060,265.429169 
	C82.019440,269.643951 76.791290,272.198273 72.103699,270.684845 
	C62.707745,267.651337 55.264889,253.803787 58.017567,244.310928 
	C59.415607,239.489670 61.854744,235.101700 64.267029,230.309082 
M159.750580,150.998749 
	C158.072464,152.137054 157.957260,153.695099 158.635239,155.406235 
	C162.962051,166.326843 169.222290,176.123978 176.103134,185.587997 
	C173.474960,178.408920 170.527496,171.399292 167.325150,164.508133 
	C165.183334,159.899155 164.266541,154.639252 159.750580,150.998749 
M113.234436,171.907425 
	C116.147537,168.042587 119.060631,164.177765 121.973732,160.312927 
	C118.374046,163.390884 115.435356,166.959152 112.597763,170.606079 
	C112.419167,170.835617 110.237526,172.252274 113.234436,171.907425 
M160.879669,113.620987 
	C161.419006,112.510185 163.312012,112.127129 162.680038,110.140083 
	C159.015076,113.732048 155.773239,117.407867 153.585693,121.959595 
	C155.873322,119.347145 158.160934,116.734695 160.879669,113.620987 
z"/>
</svg>